<svg width="40" height="40" viewBox="0 0 40 40" fill="none" xmlns="http://www.w3.org/2000/svg">
<path d="M30.686 18.1252H30.6874H21.8749V9.32918C21.8749 8.60527 21.2888 8 20.5649 8H19.4373C18.7136 8 18.1249 8.60527 18.1249 9.32918V18.1252H9.31259C8.58907 18.1252 8 18.7105 8 19.4346V20.5687C8 21.2922 8.58888 21.875 9.31259 21.875H18.1251V30.7028C18.1251 31.4263 18.7136 32 19.4375 32H20.5651C21.289 32 21.8751 31.4261 21.8751 30.7028V21.875H30.686C31.41 21.875 32 21.292 32 20.5687V19.4346C32 18.7105 31.41 18.1252 30.686 18.1252Z" fill="#EB7777"/>
</svg>
