<svg width="24" height="24" viewBox="0 0 24 24" fill="none" xmlns="http://www.w3.org/2000/svg">
<path d="M19.6885 4.66643C19.5901 4.4962 19.4424 4.44577 19.3139 4.53836C19.1857 4.63094 19.1021 4.8484 19.1021 5.08961V8.87179C18.8441 8.8862 18.6006 8.92142 18.3703 8.97105V4.00898C18.3703 3.92974 18.3686 3.85103 18.366 3.77311C18.3747 3.67412 18.369 3.573 18.3494 3.47908C18.1954 1.48966 17.2181 0.00400223 16.0619 0.000533577L2.30841 0C1.14836 0.00293498 0.169213 1.4982 0.01952 3.49535C0.00138469 3.58661 -0.00399439 3.68373 0.00399739 3.77898C0.00153839 3.85503 1.49833e-06 3.93107 1.49833e-06 4.00792V19.991C-0.000613257 20.9257 0.187963 21.8313 0.532687 22.549C0.549285 22.6048 0.570955 22.6558 0.596929 22.6995C0.612298 22.7257 0.629203 22.7491 0.647031 22.7697C1.0812 23.5555 1.68136 23.9997 2.30841 23.9995L16.0619 24C16.6881 24 17.2874 23.5571 17.7214 22.7732C17.77 22.7177 17.8096 22.6413 17.8363 22.5517C18.1817 21.8334 18.3706 20.9276 18.3701 19.9921V15.8214C18.6132 15.7779 18.8581 15.7699 19.1021 15.7979V19.709C19.1021 19.9505 19.186 20.1679 19.3147 20.2602C19.4433 20.3526 19.5912 20.3008 19.6895 20.1298L23.9 12.7839C24.0339 12.5499 24.0332 12.1718 23.8988 11.9394L19.6885 4.66643ZM2.30841 1.19376L16.0619 1.19456C16.8332 1.19642 17.4975 2.14017 17.651 3.45239L10.1087 14.5569C9.57819 15.3427 8.79761 15.3433 8.26661 14.5583L0.718343 3.46093C0.869726 2.14417 1.53504 1.19536 2.30841 1.19376V1.19376ZM2.3081 22.8054C1.95707 22.8062 1.61558 22.608 1.3354 22.2414L5.48377 14.8758C5.61656 14.6399 5.6141 14.2621 5.47824 14.0316C5.34253 13.801 5.12475 13.805 4.99197 14.0409L0.884019 21.3347C0.75446 20.9228 0.686683 20.4609 0.687144 19.9913L0.687451 4.97994L7.8223 15.4695C8.60949 16.6331 9.76677 16.6323 10.5533 15.4676L17.6828 4.97061V9.1765C16.3966 9.67359 15.6841 10.6072 15.5468 10.8022L15.5461 10.8004C14.7859 11.8847 14.1905 13.2762 13.8123 14.8531L13.352 14.0404C13.2189 13.805 13.0013 13.8018 12.8659 14.0329C12.7303 14.2642 12.7285 14.6423 12.8616 14.8771L13.5635 16.1173C13.5258 16.3583 13.4917 16.6013 13.4636 16.8489C13.33 17.9944 13.3061 19.17 13.3927 20.3288L13.3932 20.3341C13.394 20.3432 13.3947 20.3526 13.3957 20.3619L13.4802 21.2067C13.5048 21.4524 13.615 21.6456 13.7562 21.6912C13.8973 21.7368 14.0401 21.6253 14.114 21.4116L14.3676 20.6773C14.5875 20.0366 14.8399 19.4318 15.1219 18.8696L17.0326 22.2443C16.7528 22.6093 16.4121 22.8062 16.0622 22.8054H2.3081ZM17.6825 19.9921C17.6827 20.4636 17.6144 20.927 17.4839 21.3401L15.6031 18.0173C16.1925 17.0717 16.9065 16.3911 17.6825 16.0357V19.9921ZM19.7896 18.2626V15.2643C19.7896 14.9713 19.6672 14.7216 19.5006 14.6749C18.9955 14.5489 18.482 14.5607 17.979 14.7101C17.9701 14.7125 17.961 14.7149 17.9524 14.7181C16.8162 15.0506 15.2902 16.1512 14.0329 19.3691C14.0166 18.6019 14.0518 17.8338 14.1378 17.0805C14.3827 14.9332 15.0039 13.1297 15.9847 11.7201C15.9896 11.7134 15.9938 11.7065 15.9982 11.6996C16.0445 11.6339 17.1913 10.0575 19.3826 10.0575H19.4462C19.6359 10.0575 19.79 9.79019 19.79 9.46067V6.52564L23.17 12.3647L19.7896 18.2626Z" fill="#FFA13C"/>
</svg>
