<svg width="24" height="24" viewBox="0 0 24 24" fill="none" xmlns="http://www.w3.org/2000/svg">
<path d="M21.8906 0H2.10938C0.947719 0 0 1.24283 0 2.76923V21.2308C0 22.752 0.9435 24 2.10938 24H21.8906C23.0494 24 24 22.7614 24 21.2308V2.76923C24 1.248 23.0565 0 21.8906 0ZM21.5993 1.84615L12.0447 14.3897L2.40745 1.84615H21.5993ZM1.40625 20.8485V3.14271L8.1787 11.9575L1.40625 20.8485ZM2.40061 22.1538L9.17733 13.2572L11.5519 16.3478C11.8268 16.7056 12.2703 16.7044 12.5441 16.345L14.8594 13.3054L21.5994 22.1538H2.40061ZM22.5938 20.8484L15.8537 12L22.5938 3.15151V20.8484Z" fill="#FFA13C"/>
</svg>
