<svg width="58" height="58" viewBox="0 0 58 58" fill="none" xmlns="http://www.w3.org/2000/svg">
<g clip-path="url(#clip0)">
<path d="M42.6707 42.6707C35.1207 50.2208 22.8793 50.2208 15.3293 42.6707C7.7792 35.1207 7.7792 22.8793 15.3293 15.3293C22.8793 7.7792 35.1207 7.7792 42.6707 15.3293C50.2208 22.8793 50.2208 35.1207 42.6707 42.6707Z" fill="#D8DEE6"/>
<path d="M14.8579 43.1421C7.04746 35.3317 7.04746 22.6683 14.8579 14.8579C22.6683 7.04746 35.3317 7.04746 43.1421 14.8579C50.9525 22.6683 50.9525 35.3317 43.1421 43.1421C35.3267 50.9401 22.6733 50.9401 14.8579 43.1421ZM42.1993 15.8007C34.9096 8.51094 23.0904 8.51094 15.8007 15.8007C8.51094 23.0904 8.51094 34.9096 15.8007 42.1993C23.0904 49.4891 34.9096 49.4891 42.1993 42.1993C49.4773 34.9048 49.4773 23.0952 42.1993 15.8007Z" fill="#1E81CE"/>
<path d="M29.6666 29.6666L40.3137 29.6666C40.6774 29.6602 40.9688 29.3637 40.9688 29C40.9688 28.6363 40.6774 28.3399 40.3137 28.3334L29.6666 28.3334L29.6666 17.6863C29.6602 17.3226 29.3637 17.0312 29 17.0312C28.6363 17.0312 28.3399 17.3226 28.3334 17.6863L28.3334 28.3334L17.6863 28.3334C17.4456 28.3293 17.2209 28.4554 17.0994 28.6635C16.9776 28.8714 16.9776 29.1287 17.0994 29.3365C17.2209 29.5446 17.4456 29.6708 17.6863 29.6666L28.3334 29.6666L28.3334 40.3137C28.3399 40.6774 28.6363 40.9688 29 40.9688C29.3637 40.9688 29.6602 40.6774 29.6666 40.3137L29.6666 29.6666Z" fill="#1E81CE"/>
</g>
<defs>
<clipPath id="clip0">
<rect width="40" height="40" fill="white" transform="translate(29 0.715729) rotate(45)"/>
</clipPath>
</defs>
</svg>
