<svg width="24" height="24" viewBox="0 0 24 24" fill="none" xmlns="http://www.w3.org/2000/svg">
<path d="M23.583 0.65706C23.2905 0.233304 22.8522 0 22.349 0C22.0754 0 21.7856 0.0681732 21.4877 0.203005L1.21201 9.36916C0.136001 9.85547 -0.00891695 10.5852 0.000403086 10.977C0.00972312 11.3687 0.189362 12.0877 1.28693 12.5012C1.29351 12.5036 1.30009 12.506 1.30667 12.5082L5.51239 13.9335L7.78684 21.636C8.09696 22.6861 8.79304 23.3384 9.6037 23.3384C10.1148 23.3384 10.6176 23.0847 11.0576 22.6052L13.659 19.7685L17.4322 23.3665C17.4325 23.367 17.4331 23.3672 17.4335 23.3676L17.4693 23.4018C17.4726 23.4048 17.476 23.4081 17.4793 23.4111C17.8987 23.7963 18.3565 23.9998 18.8037 24H18.8039C19.6776 24 20.3733 23.2341 20.576 22.0489L23.8981 2.62196C24.0315 1.84219 23.9197 1.14444 23.583 0.65706V0.65706ZM6.91935 13.6628L15.0335 8.75366L9.98107 15.1115C9.89829 15.2156 9.83963 15.3431 9.81076 15.4818L8.83654 20.1552L6.91935 13.6628ZM10.1068 21.3824C10.0732 21.4189 10.0394 21.4516 10.0056 21.4817L10.9094 17.1463L12.5536 18.7143L10.1068 21.3824ZM22.5226 2.29192L19.2004 21.7191C19.1684 21.905 19.0663 22.3377 18.8037 22.3377C18.6739 22.3377 18.5109 22.2539 18.3441 22.1018L14.0686 18.0248C14.068 18.0241 14.0673 18.0235 14.0665 18.023L11.5225 15.5969L18.8289 6.40265C19.0628 6.10832 19.084 5.65751 18.8792 5.33418C18.6741 5.01084 18.3026 4.90912 17.9987 5.09308L5.98168 12.3636L1.71876 10.9192L21.9882 1.75584C22.1594 1.67836 22.279 1.66213 22.349 1.66213C22.3919 1.66213 22.4683 1.66819 22.4966 1.70952C22.5339 1.76341 22.5814 1.94716 22.5226 2.29192V2.29192Z" fill="#FFA13C"/>
</svg>
