<svg width="1024" height="998" viewBox="0 0 1024 998" fill="none" xmlns="http://www.w3.org/2000/svg">
<g clip-path="url(#clip0_2_2)">
<path d="M475.419 1.24354C353.183 10.0889 241.683 59.0253 154.135 142.309C38.9779 251.67 -16.2409 406.52 4.17117 562.06C29.6568 756.543 170.536 918.515 364.038 975.838C513.648 1020.18 680.13 993.873 806.968 905.994C962.831 797.897 1043.89 618.578 1019.82 435.009C994.335 240.527 853.456 78.554 659.954 21.2317C602.375 4.1154 535.239 -3.12169 475.419 1.24354ZM514.473 310.141C540.667 312.668 553.764 316.689 559.663 324.155C561.197 326.223 563.675 331.278 565.091 335.413C568.158 344.144 568.276 354.138 566.389 428.806C565.209 475.445 565.917 489.804 569.81 500.143C574.412 511.975 584.559 517.374 593.526 512.894C601.667 508.758 620.663 488.426 633.052 470.39C661.724 429.036 679.186 396.986 700.188 347.475C704.436 337.711 710.099 331.278 715.999 329.784C718.358 329.095 751.749 328.521 792.809 328.406L865.373 328.176L871.508 330.703C879.413 334.149 882.481 338.63 882.481 346.786C882.481 362.294 865.845 394.114 837.291 433.056C833.398 438.455 818.649 457.525 804.608 475.56C773.577 515.306 766.852 524.611 762.132 534.261C756.233 546.437 757.649 556.431 766.97 568.263C769.684 571.595 783.37 585.035 797.411 598.131C836.701 634.776 854.518 654.075 869.03 675.211C879.413 690.49 883.425 701.747 881.773 711.397C880.947 716.681 875.52 722.999 869.384 726.101C862.069 729.662 850.86 730.351 789.152 731.155L730.747 731.959L721.308 728.858C697.238 721.046 681.192 708.066 644.733 666.941C624.557 644.195 609.573 633.053 599.189 632.938C589.632 632.938 577.48 645.344 572.288 660.737C568.748 671.076 567.45 679.002 566.389 696.923C565.091 718.06 562.495 722.999 549.162 728.398C544.325 730.466 484.15 731.155 468.222 729.547C436.247 726.101 406.632 716.337 377.252 699.45C334.658 675.097 308.583 653.27 280.619 618.578C232.008 558.154 198.853 506.691 158.619 429.036C143.044 398.824 124.756 359.766 121.806 350.462C118.856 340.812 123.104 332.886 132.779 329.899C136.083 328.865 154.489 328.291 196.965 327.716L256.55 327.142L263.511 329.669C274.484 333.805 279.085 339.089 286.519 356.665C292.89 371.484 327.225 438.57 337.962 457.295C348.935 476.249 360.616 492.102 370.645 501.521C383.034 513.353 388.579 516.225 397.31 515.536C404.744 514.847 406.75 513.239 411.351 503.474C422.56 479.925 424.33 400.317 414.301 369.071C408.519 351.266 399.906 344.488 376.072 339.549C371.943 338.63 371.943 337.251 375.718 331.852C384.922 318.986 401.322 312.783 432.589 310.256C449.697 308.877 500.433 308.762 514.473 310.141Z" fill="#6E8EB5"/>
</g>
<defs>
<clipPath id="clip0_2_2">
<rect width="1024" height="1024" fill="white"/>
</clipPath>
</defs>
</svg>
